# Blender v2.79 (sub 0) OBJ File: 'banner-8.blend'
# www.blender.org
v 35.419552 0.000000 -20.121841
v 35.419552 0.000000 17.441826
v 35.419552 0.000000 17.441826
v 26.291252 0.000000 4.744247
v 27.878786 0.000000 9.770371
v 21.264065 0.000000 9.770371
v 21.264065 0.000000 -0.017346
v 27.878786 0.000000 -0.017346
v 27.878786 0.000000 4.744247
v 21.264065 0.000000 4.744247
v 11.474282 0.000000 4.744247
v 14.649350 0.000000 4.744247
v 18.089003 0.000000 -0.017346
v 11.474282 0.000000 -0.017346
v 11.474282 0.000000 9.770371
v 18.089003 0.000000 9.770371
v 1.684499 0.000000 9.770371
v 1.684499 0.000000 -0.017346
v 8.034630 0.000000 9.770371
v 8.034630 0.000000 -0.017346
v -7.311516 0.000000 9.770371
v -7.311516 0.000000 -0.017346
v -0.961387 0.000000 9.770371
v -0.961387 0.000000 -0.017346
v -17.365891 0.000000 -0.017346
v -17.365891 0.000000 9.770371
v -10.751170 0.000000 9.770371
v -10.751170 0.000000 -0.017346
v -21.863897 0.000000 5.802377
v -19.218010 0.000000 5.802377
v -20.805542 0.000000 -0.017346
v -27.155672 0.000000 -0.017346
v -27.155672 0.000000 9.770371
v -20.540953 0.000000 9.770371
v -20.540953 0.000000 5.802377
v 11.474282 0.000000 -12.185858
v 11.474282 0.000000 -2.662675
v 17.824411 0.000000 -2.662675
v 4.859567 0.000000 -12.185858
v 4.859567 0.000000 -2.662670
v -5.776900 0.000000 -7.424266
v -2.496004 0.000000 -7.424266
v -4.136455 0.000000 -12.185858
v -0.961387 0.000000 -2.662670
v -7.311516 0.000000 -2.662670
v -4.136455 0.000000 -12.185858
v -13.926235 0.000000 -12.450390
v -13.926235 0.000000 -2.662675
v -18.424244 0.000000 -12.450390
v -9.692817 0.000000 -12.450390
v -30.330734 0.000000 12.944766
v -30.330734 0.000000 -15.624784
v 31.053848 0.000000 12.944766
v -30.330734 0.000000 12.944766
v 31.053848 0.000000 -15.624784
v 31.053848 0.000000 12.944766
v -30.330734 0.000000 -15.624784
v 31.053848 0.000000 -15.624784
v -34.961040 0.000000 -20.121841
v 35.419552 0.000000 -20.121841
v 35.419552 0.000000 -20.121841
v -34.961040 0.000000 17.441826
v -34.961040 0.000000 -20.121841
v -34.961040 0.000000 -20.121841
v 35.419552 0.000000 17.441826
v -34.961040 0.000000 17.441826
v -34.961040 0.000000 17.441826
vn 0.0000 1.0000 0.0000
vn 0.0000 0.0000 1.0000
vn 0.0000 -1.0000 0.0000
usemtl None
s off
f 32//1 33//1 31//1
f 29//1 33//1 34//1
f 35//1 29//1 34//1
f 33//1 29//1 31//1
f 29//1 35//1 31//1
f 30//1 31//1 35//1
f 35//1 34//1 30//1
f 25//1 31//1 26//1
f 31//1 30//1 26//1
f 34//1 26//1 30//1
f 28//1 25//1 26//1 27//1
f 22//1 28//1 21//1
f 28//1 27//1 21//1
f 22//1 21//1 23//1
f 23//1 24//1 22//1
f 18//1 24//1 17//1
f 24//1 23//1 17//1
f 18//1 17//1 19//1
f 19//1 20//1 18//1
f 19//1 14//1 20//1
f 14//1 19//1 15//1
f 14//1 11//1 13//1
f 11//1 12//1 13//1
f 12//1 11//1 14//1 15//1 16//1
f 13//1 12//1 16//1
f 7//1 13//1 6//1
f 13//1 16//1 6//1
f 10//1 9//1 8//1 7//1 6//1
f 10//1 6//1 4//1
f 5//1 4//1 6//1
f 4//1 5//1 9//1 10//1
f 47//1 48//1 50//1
f 50//1 48//1 45//1
f 47//1 50//1 49//1 48//1
f 46//1 50//1 45//1
f 41//1 42//1 46//1
f 44//1 42//1 45//1
f 42//1 41//1 45//1
f 39//1 46//1 40//1
f 46//1 42//1 44//1 40//1
f 40//1 36//1 39//1
f 36//1 40//1 37//1
f 37//1 38//1 36//1
f 49//1 36//1 57//1
f 57//1 36//1 58//1
f 36//1 38//1 58//1
f 58//1 38//1 8//1
f 8//1 56//1 58//1
f 9//2 5//2 8//2
f 8//1 5//1 56//1
f 54//1 56//1 5//1
f 15//1 19//1 17//1 23//1 21//1 27//1 26//1 34//1 33//1 54//1 5//1 6//1 16//1
f 33//1 32//1 54//1
f 7//1 8//1 38//1 32//1 31//1 25//1 28//1 22//1 24//1 18//1 20//1 14//1 13//1
f 38//3 37//3 40//3 44//3 45//3 48//3
f 38//1 48//1 32//1
f 48//1 49//1 32//1
f 49//1 57//1 32//1
f 32//1 57//1 54//1
f 65//1 54//1 67//1 66//1
f 56//1 54//1 65//1
f 58//1 65//1 61//1
f 56//1 65//1 58//1
f 64//1 58//1 61//1
f 58//1 64//1 57//1
f 57//1 64//1 67//1 54//1
